<?xml version="1.0" encoding="UTF-8"?>
<svg width="150px" height="24px" viewBox="0 0 150 24" version="1.1" xmlns="http://www.w3.org/2000/svg" xmlns:xlink="http://www.w3.org/1999/xlink">
    <title>light</title>
    <g id="Page-1" stroke="none" stroke-width="1" fill="none" fill-rule="evenodd">
        <g id="light" fill-rule="nonzero">
            <g id="Group">
                <path d="M6.51851852,0 L23.1111111,15.3 L23.1111111,22.5 L14.8148148,14.7 L14.8148148,16.2 L8.88888889,21.3 L8.88888889,14.1 L11.5555556,12 L6.22222222,7.35 L6.22222222,24 L0,19.8 L0,3.45 L6.51851852,0 Z M23.1111111,2.1 L23.1111111,9.3 L20.7407407,10.95 L16.8888889,7.5 L23.1111111,2.1 Z M25.7777778,0.15 L32,3.45 L32,19.8 L25.7777778,24 L25.7777778,0.15 Z" id="Combined-Shape-Copy-23" fill="#964CEF"></path>
                <g id="GPUHub" transform="translate(40, 6)" fill="#333333">
                    <path d="M5.4508424,11.9977453 C4.63037109,11.9977453 3.88682935,11.865261 3.22021715,11.6002923 C2.55360495,11.3353236 1.98030353,10.9497286 1.50031289,10.4435073 C1.02032225,9.93728601 0.650272443,9.32496868 0.390163466,8.60655532 C0.130054489,7.88814196 -2.39899859e-24,7.07615866 -2.39899859e-24,6.17060543 C-2.39899859e-24,5.19039666 0.144071841,4.31816284 0.432215523,3.55390397 C0.720359205,2.78964509 1.13138281,2.14334029 1.66528635,1.61498956 C2.19918988,1.08663883 2.83581822,0.685386221 3.57517135,0.411231733 C4.31452448,0.137077244 5.13997236,0 6.05151498,0 C7.08896494,0 8.00656239,0.168350731 8.80430734,0.505052192 C9.60205228,0.841753653 10.250417,1.31553236 10.7494016,1.92638831 C11.2483862,2.53724426 11.5494689,3.26413361 11.6526499,4.10705637 L8.74981384,4.10705637 C8.64663286,3.7725261 8.46689556,3.48196242 8.21060196,3.23536534 C7.95430836,2.98876827 7.64148916,2.79561587 7.27214436,2.65590814 C6.90279957,2.51620042 6.49136125,2.44634656 6.0378294,2.44634656 C5.34625138,2.44634656 4.77066903,2.59749478 4.31108235,2.89979123 C3.85149566,3.20208768 3.50682639,3.62622129 3.27707452,4.17219207 C3.04732265,4.71816284 2.93244671,5.35682672 2.93244671,6.08818372 C2.93244671,6.67006263 3.0033629,7.18242171 3.14519528,7.62526096 C3.28702767,8.06810021 3.49065252,8.43799582 3.75606984,8.73494781 C4.02148717,9.03189979 4.34073444,9.2559499 4.71381167,9.40709812 C5.08688889,9.55824635 5.50093992,9.63382046 5.95596474,9.63382046 C6.51101872,9.63382046 6.99938659,9.53762004 7.42106837,9.34521921 C7.84275014,9.15281837 8.17037465,8.88446764 8.40394189,8.54016701 C8.63750914,8.19586639 8.71298719,7.70830898 8.71298719,7.45778706 L5.80119326,7.43498956 L5.80119326,5.3736952 L11.7822897,5.3736952 L11.7822897,11.8419207 L9.51172745,11.8419207 L9.39129434,10.1789562 C9.01971008,10.628977 8.70651764,10.9450939 8.45171701,11.1273069 C8.06951606,11.4006263 7.6202143,11.6140292 7.10381172,11.7675157 C6.58740914,11.9210021 6.03641937,11.9977453 5.4508424,11.9977453 Z" id="Path"></path>
                    <path d="M13.5522027,11.8419207 L13.5522027,0.153569937 L18.4048608,0.153569937 C19.4102948,0.153569937 20.2436637,0.315448852 20.9049676,0.639206681 C21.5662714,0.962964509 22.0607356,1.41649269 22.3883601,1.99979123 C22.7159846,2.58308977 22.8797969,3.26713987 22.8797969,4.05194154 C22.8797969,4.88718163 22.6928436,5.59912317 22.3189369,6.18776618 C21.9450302,6.77640919 21.4229046,7.22421712 20.75256,7.53118998 C20.0822154,7.83816284 19.2989025,7.99164927 18.4026214,7.99164927 L16.1706275,7.99164927 L16.1706275,5.77903967 L18.1659852,5.77903967 C18.8014938,5.77903967 19.2622002,5.62367432 19.5481045,5.31294363 C19.8340087,5.00221294 19.9769608,4.61394572 19.9769608,4.14814196 C19.9769608,3.58613779 19.8085867,3.18338205 19.4718385,2.93987474 C19.1350902,2.69636743 18.6998058,2.57461378 18.1659852,2.57461378 L16.4276316,2.625 L16.4095031,11.8419207 L13.5522027,11.8419207 Z" id="Path"></path>
                    <path d="M29.1428046,11.9977453 C28.0749976,11.9977453 27.1657359,11.8041754 26.4150196,11.4170355 C25.6643032,11.0298956 25.0925363,10.4881837 24.6997186,9.79189979 C24.306901,9.09561587 24.1104922,8.27941545 24.1104922,7.34329854 L24.1104922,0.153569937 L26.954107,0.153569937 L26.954107,7.34805846 C26.954107,7.80768267 27.0424827,8.19440501 27.219234,8.50822547 C27.3959854,8.82204593 27.6485466,9.05795407 27.9769176,9.2159499 C28.3052886,9.37394572 28.7030413,9.45294363 29.1701758,9.45294363 C29.6509129,9.45294363 30.0547205,9.37127349 30.3815985,9.20793319 C30.7084765,9.0445929 30.9553146,8.80563674 31.1221128,8.49106472 C31.288911,8.17649269 31.3723101,7.79549061 31.3723101,7.34805846 L31.3723101,0.153569937 L34.2136855,0.153569937 L34.2136855,7.34329854 C34.2136855,8.32668058 34.0051671,9.16463466 33.5881301,9.85716075 C33.1710931,10.5496868 32.5834011,11.0795825 31.825054,11.4468476 C31.066707,11.8141127 30.1726238,11.9977453 29.1428046,11.9977453 Z" id="Path"></path>
                    <path d="M36.3593349,11.8419207 L36.3593349,0.153569937 L39.2166353,0.153569937 L39.2166353,11.8419207 L36.3593349,11.8419207 Z M44.1626042,11.8419207 L44.1626042,0.153569937 L47.0199046,0.153569937 L47.0199046,11.8419207 L44.1626042,11.8419207 Z M38.6525405,7.12359081 L38.6525405,4.67724426 L44.7269478,4.67724426 L44.7269478,7.12359081 L38.6525405,7.12359081 Z" id="Shape"></path>
                    <path d="M51.8885811,11.9977453 C51.2212224,11.9977453 50.6592841,11.8679332 50.2027663,11.608309 C49.7462485,11.3486848 49.4046067,10.9650104 49.1778408,10.457286 C48.9510748,9.94956159 48.8376919,9.33461378 48.8376919,8.61244259 L48.8376919,3.18162839 L51.5290235,3.18162839 L51.5290235,7.88167015 C51.5290235,8.30004175 51.5779184,8.65085595 51.6757081,8.93411273 C51.7734978,9.21736952 51.9289743,9.43306889 52.1421375,9.58121086 C52.3553008,9.72935282 52.6317496,9.8034238 52.9714837,9.8034238 C53.3263135,9.8034238 53.6247007,9.71866388 53.8666451,9.54914405 C54.1085896,9.37962422 54.293262,9.16012526 54.4206623,8.89064718 C54.5480626,8.6211691 54.6117628,8.3336952 54.6117628,8.02822547 L54.6117628,3.18162839 L57.3030945,3.18162839 L57.3030945,11.8419207 L54.7140314,11.8419207 L54.6713067,10.3387891 C54.191488,10.9739179 53.7951207,11.3856507 53.4822047,11.5739875 C53.0128308,11.8564927 52.4816229,11.9977453 51.8885811,11.9977453 Z" id="Path"></path>
                    <path d="M64.5168953,12 C64.1151198,12 63.7409229,11.9373695 63.3943044,11.8121086 C63.047686,11.6868476 62.7515383,11.5081837 62.5058614,11.2761169 C62.3420768,11.1214057 62.1153109,10.8572303 61.8255636,10.4835908 L61.7255345,11.8419207 L59.1638426,11.8419207 L59.1638426,0.153569937 L61.8551742,0.153569937 L61.8551742,4.54446764 C62.2513096,3.99646486 62.6028217,3.6295755 62.9097104,3.44379958 C63.3700436,3.1651357 63.9057719,3.02580376 64.5168953,3.02580376 C65.044744,3.02580376 65.5210022,3.12697286 65.9456699,3.32931106 C66.3703376,3.53164927 66.7366135,3.82409186 67.0444976,4.20663883 C67.3523817,4.5891858 67.5886031,5.05874739 67.7531619,5.61532359 C67.9177206,6.17189979 68,6.80442589 68,7.51290188 C68,8.45503132 67.8563014,9.26279749 67.5689042,9.93620042 C67.281507,10.6096033 66.8757917,11.1219207 66.3517584,11.4731524 C65.8277251,11.8243841 65.216104,12 64.5168953,12 Z M63.4613638,9.8217119 C63.8739218,9.8217119 64.212163,9.72743215 64.4760874,9.53887265 C64.7400117,9.35031315 64.9353008,9.08079332 65.0619546,8.73031315 C65.1886085,8.37983299 65.2519354,7.97402923 65.2519354,7.51290188 C65.2519354,7.16317328 65.2189241,6.84743215 65.1529015,6.5656785 C65.086879,6.28392484 64.9852324,6.04229645 64.8479619,5.84079332 C64.7106914,5.63929019 64.5317421,5.48317328 64.3111139,5.37244259 C64.0904858,5.2617119 63.830045,5.20634656 63.5297917,5.20634656 C63.1565486,5.20634656 62.8444344,5.28726514 62.5934491,5.4491023 C62.3424639,5.61093946 62.1566717,5.8365762 62.0360727,6.12601253 C61.9154737,6.41544885 61.8551742,6.74563674 61.8551742,7.1165762 L61.8551742,7.91148225 C61.8551742,8.30079332 61.9200356,8.63749478 62.0497583,8.92158664 C62.179481,9.2056785 62.3652732,9.42672234 62.6071347,9.58471816 C62.8489962,9.74271399 63.1337393,9.8217119 63.4613638,9.8217119 Z" id="Shape"></path>
                </g>
            </g>
            <g id="Docs" opacity="0.400000006" transform="translate(114.152, 6.672)" fill="#000000">
                <path d="M-1.52020044e-23,0 L3.744,0 C4.65066667,0 5.512,0.101333333 6.328,0.304 C7.144,0.506666667 7.856,0.834666667 8.464,1.288 C9.072,1.74133333 9.55466667,2.33066667 9.912,3.056 C10.2693333,3.78133333 10.448,4.66133333 10.448,5.696 C10.448,6.61333333 10.2746667,7.42133333 9.928,8.12 C9.58133333,8.81866667 9.11466667,9.40533333 8.528,9.88 C7.94133333,10.3546667 7.264,10.7146667 6.496,10.96 C5.728,11.2053333 4.92266667,11.328 4.08,11.328 L-1.52020044e-23,11.328 L-1.52020044e-23,0 Z M2.496,9.024 L3.792,9.024 C4.368,9.024 4.904,8.96533333 5.4,8.848 C5.896,8.73066667 6.32533333,8.536 6.688,8.264 C7.05066667,7.992 7.336,7.63466667 7.544,7.192 C7.752,6.74933333 7.856,6.208 7.856,5.568 C7.856,5.01333333 7.752,4.53066667 7.544,4.12 C7.336,3.70933333 7.056,3.37066667 6.704,3.104 C6.352,2.83733333 5.93866667,2.63733333 5.464,2.504 C4.98933333,2.37066667 4.49066667,2.304 3.968,2.304 L2.496,2.304 L2.496,9.024 Z" id="Shape"></path>
                <path d="M11.552,7.44 C11.552,6.82133333 11.664,6.26133333 11.888,5.76 C12.112,5.25866667 12.4186667,4.82933333 12.808,4.472 C13.1973333,4.11466667 13.656,3.84 14.184,3.648 C14.712,3.456 15.2746667,3.36 15.872,3.36 C16.4693333,3.36 17.032,3.456 17.56,3.648 C18.088,3.84 18.5466667,4.11466667 18.936,4.472 C19.3253333,4.82933333 19.632,5.25866667 19.856,5.76 C20.08,6.26133333 20.192,6.82133333 20.192,7.44 C20.192,8.05866667 20.08,8.61866667 19.856,9.12 C19.632,9.62133333 19.3253333,10.0506667 18.936,10.408 C18.5466667,10.7653333 18.088,11.04 17.56,11.232 C17.032,11.424 16.4693333,11.52 15.872,11.52 C15.2746667,11.52 14.712,11.424 14.184,11.232 C13.656,11.04 13.1973333,10.7653333 12.808,10.408 C12.4186667,10.0506667 12.112,9.62133333 11.888,9.12 C11.664,8.61866667 11.552,8.05866667 11.552,7.44 Z M13.952,7.44 C13.952,8.02666667 14.12,8.50133333 14.456,8.864 C14.792,9.22666667 15.264,9.408 15.872,9.408 C16.48,9.408 16.952,9.22666667 17.288,8.864 C17.624,8.50133333 17.792,8.02666667 17.792,7.44 C17.792,6.85333333 17.624,6.37866667 17.288,6.016 C16.952,5.65333333 16.48,5.472 15.872,5.472 C15.264,5.472 14.792,5.65333333 14.456,6.016 C14.12,6.37866667 13.952,6.85333333 13.952,7.44 Z" id="Shape"></path>
                <path d="M26.864,6.064 C26.7466667,5.89333333 26.5813333,5.752 26.368,5.64 C26.1546667,5.528 25.9253333,5.472 25.68,5.472 C25.072,5.472 24.6,5.65333333 24.264,6.016 C23.928,6.37866667 23.76,6.85333333 23.76,7.44 C23.76,8.02666667 23.928,8.50133333 24.264,8.864 C24.6,9.22666667 25.072,9.408 25.68,9.408 C25.9466667,9.408 26.176,9.34933333 26.368,9.232 C26.56,9.11466667 26.7253333,8.976 26.864,8.816 L28.448,10.48 C28.0746667,10.864 27.6346667,11.1333333 27.128,11.288 C26.6213333,11.4426667 26.1386667,11.52 25.68,11.52 C25.0826667,11.52 24.52,11.424 23.992,11.232 C23.464,11.04 23.0053333,10.7653333 22.616,10.408 C22.2266667,10.0506667 21.92,9.62133333 21.696,9.12 C21.472,8.61866667 21.36,8.05866667 21.36,7.44 C21.36,6.82133333 21.472,6.26133333 21.696,5.76 C21.92,5.25866667 22.2266667,4.82933333 22.616,4.472 C23.0053333,4.11466667 23.464,3.84 23.992,3.648 C24.52,3.456 25.0826667,3.36 25.68,3.36 C26.1386667,3.36 26.6213333,3.43733333 27.128,3.592 C27.6346667,3.74666667 28.0746667,4.016 28.448,4.4 L26.864,6.064 Z" id="Path"></path>
                <path d="M33.712,5.84 C33.36,5.40266667 32.896,5.184 32.32,5.184 C32.1173333,5.184 31.92,5.232 31.728,5.328 C31.536,5.424 31.44,5.58933333 31.44,5.824 C31.44,6.016 31.5386667,6.15733333 31.736,6.248 C31.9333333,6.33866667 32.184,6.41866667 32.488,6.488 C32.792,6.55733333 33.1173333,6.632 33.464,6.712 C33.8106667,6.792 34.136,6.91733333 34.44,7.088 C34.744,7.25866667 34.9946667,7.49066667 35.192,7.784 C35.3893333,8.07733333 35.488,8.46933333 35.488,8.96 C35.488,9.46133333 35.3786667,9.87466667 35.16,10.2 C34.9413333,10.5253333 34.6613333,10.7866667 34.32,10.984 C33.9786667,11.1813333 33.5946667,11.32 33.168,11.4 C32.7413333,11.48 32.32,11.52 31.904,11.52 C31.36,11.52 30.8106667,11.4426667 30.256,11.288 C29.7013333,11.1333333 29.232,10.8586667 28.848,10.464 L30.304,8.848 C30.528,9.12533333 30.776,9.336 31.048,9.48 C31.32,9.624 31.6373333,9.696 32,9.696 C32.2773333,9.696 32.528,9.656 32.752,9.576 C32.976,9.496 33.088,9.34933333 33.088,9.136 C33.088,8.93333333 32.9893333,8.78133333 32.792,8.68 C32.5946667,8.57866667 32.344,8.49333333 32.04,8.424 C31.736,8.35466667 31.4106667,8.28 31.064,8.2 C30.7173333,8.12 30.392,8 30.088,7.84 C29.784,7.68 29.5333333,7.45333333 29.336,7.16 C29.1386667,6.86666667 29.04,6.47466667 29.04,5.984 C29.04,5.52533333 29.1333333,5.13066667 29.32,4.8 C29.5066667,4.46933333 29.752,4.19733333 30.056,3.984 C30.36,3.77066667 30.7093333,3.61333333 31.104,3.512 C31.4986667,3.41066667 31.8986667,3.36 32.304,3.36 C32.816,3.36 33.3333333,3.43466667 33.856,3.584 C34.3786667,3.73333333 34.8213333,4 35.184,4.384 L33.712,5.84 Z" id="Path"></path>
            </g>
        </g>
    </g>
</svg>